<svg xmlns="http://www.w3.org/2000/svg" viewBox="0 0 128 128">
  <defs>
    <radialGradient id="bg" cx="50%" cy="35%" r="75%">
      <stop offset="0" stop-color="#fffdf2"/>
      <stop offset=".58" stop-color="#fff"/>
      <stop offset="1" stop-color="#eef1ff"/>
    </radialGradient>
    <linearGradient id="ear" x1="0" y1="0" x2="1" y2="1">
      <stop offset="0" stop-color="#e2a34a"/>
      <stop offset="1" stop-color="#a96324"/>
    </linearGradient>
  </defs>
  <circle cx="64" cy="64" r="60" fill="#ffd84d"/>
  <circle cx="64" cy="64" r="54" fill="url(#bg)" stroke="#111" stroke-width="4"/>
  <path d="M31 47 22 22c-2-6 5-10 10-5l24 20Z" fill="url(#ear)" stroke="#111" stroke-width="4" stroke-linejoin="round"/>
  <path d="m97 47 9-25c2-6-5-10-10-5L72 37Z" fill="url(#ear)" stroke="#111" stroke-width="4" stroke-linejoin="round"/>
  <path d="M39 63c7-10 43-10 50 0 6 8 3 29-25 32-28-3-31-24-25-32Z" fill="#c9853c" stroke="#111" stroke-width="4"/>
  <circle cx="51" cy="62" r="4.5" fill="#111"/>
  <circle cx="77" cy="62" r="4.5" fill="#111"/>
  <ellipse cx="64" cy="76" rx="11" ry="8" fill="#fff"/>
  <ellipse cx="64" cy="74" rx="5" ry="3.5" fill="#111"/>
  <path d="M58 82c3 4 9 4 12 0" fill="none" stroke="#111" stroke-width="3" stroke-linecap="round"/>
</svg>